<?xml version="1.0" encoding="utf-8"?>
<!-- Generator: Adobe Illustrator 27.3.1, SVG Export Plug-In . SVG Version: 6.00 Build 0)  -->
<svg version="1.1" id="Layer_1" xmlns="http://www.w3.org/2000/svg" xmlns:xlink="http://www.w3.org/1999/xlink" x="0px" y="0px"
	 viewBox="0 0 50 50" style="enable-background:new 0 0 50 50;" xml:space="preserve">
<style type="text/css">
	.st0{fill:#231F20;}
</style>
<g>
	<path class="st0" d="M2.4,16.4l1.5-1.5c0.8-0.8,2.1-0.8,2.9,0l21.2,21.2c0.8,0.8,0.8,2.1,0,2.9l-1.5,1.5c-0.8,0.8-2.1,0.8-2.9,0
		L2.4,19.3C1.6,18.5,1.6,17.1,2.4,16.4z"/>
	<path class="st0" d="M46.1,14.9l1.5,1.5c0.8,0.8,0.8,2.1,0,2.9L26.4,40.4c-0.8,0.8-2.1,0.8-2.9,0L22.1,39c-0.8-0.8-0.8-2.1,0-2.9
		l21.2-21.2C44,14.1,45.3,14.1,46.1,14.9z"/>
</g>
</svg>
