<?xml version="1.0" encoding="utf-8"?>
<!-- Generator: Adobe Illustrator 27.3.1, SVG Export Plug-In . SVG Version: 6.00 Build 0)  -->
<svg version="1.1" id="Layer_1" xmlns="http://www.w3.org/2000/svg" xmlns:xlink="http://www.w3.org/1999/xlink" x="0px" y="0px"
	 viewBox="0 0 50 50" style="enable-background:new 0 0 50 50;" xml:space="preserve">
<style type="text/css">
	.st0{fill:#231F20;}
</style>
<path class="st0" d="M13.7,47.6l-1.5-1.5c-0.8-0.8-0.8-2.1,0-2.9l21.2-21.2c0.8-0.8,2.1-0.8,2.9,0l1.5,1.5c0.8,0.8,0.8,2.1,0,2.9
	L16.6,47.6C15.8,48.4,14.4,48.4,13.7,47.6z"/>
<path class="st0" d="M12.2,3.9l1.5-1.5c0.8-0.8,2.1-0.8,2.9,0l21.2,21.2c0.8,0.8,0.8,2.1,0,2.9l-1.5,1.5c-0.8,0.8-2.1,0.8-2.9,0
	L12.2,6.8C11.4,6,11.4,4.7,12.2,3.9z"/>
</svg>
