<?xml version="1.0" encoding="utf-8"?>
<!-- Generator: Adobe Illustrator 27.3.1, SVG Export Plug-In . SVG Version: 6.00 Build 0)  -->
<svg version="1.1" id="Layer_1" xmlns="http://www.w3.org/2000/svg" xmlns:xlink="http://www.w3.org/1999/xlink" x="0px" y="0px"
	 viewBox="0 0 50 50" style="enable-background:new 0 0 50 50;" xml:space="preserve">
<style type="text/css">
	.st0{fill:#231F20;}
</style>
<g>
	<path class="st0" d="M36.3,2.4l1.5,1.5c0.8,0.8,0.8,2.1,0,2.9L16.6,27.9c-0.8,0.8-2.1,0.8-2.9,0l-1.5-1.5c-0.8-0.8-0.8-2.1,0-2.9
		L33.4,2.4C34.2,1.6,35.6,1.6,36.3,2.4z"/>
	<path class="st0" d="M37.8,46.1l-1.5,1.5c-0.8,0.8-2.1,0.8-2.9,0L12.2,26.4c-0.8-0.8-0.8-2.1,0-2.9l1.5-1.5c0.8-0.8,2.1-0.8,2.9,0
		l21.2,21.2C38.6,44,38.6,45.3,37.8,46.1z"/>
</g>
</svg>
