<?xml version="1.0" encoding="utf-8"?>
<!-- Generator: Adobe Illustrator 27.3.1, SVG Export Plug-In . SVG Version: 6.00 Build 0)  -->
<svg version="1.1" id="Layer_1" xmlns="http://www.w3.org/2000/svg" xmlns:xlink="http://www.w3.org/1999/xlink" x="0px" y="0px"
	 viewBox="0 0 50 50" style="enable-background:new 0 0 50 50;" xml:space="preserve">
<style type="text/css">
	.st0{fill:#231F20;}
</style>
<g>
	<path class="st0" d="M40.6,38.7l-1.9,1.9c-1,1-2.6,1-3.5,0L9.4,14.9c-1-1-1-2.6,0-3.5l1.9-1.9c1-1,2.6-1,3.5,0l25.7,25.7
		C41.5,36.1,41.5,37.7,40.6,38.7z"/>
	<path class="st0" d="M11.3,40.6l-1.9-1.9c-1-1-1-2.6,0-3.5L35.1,9.4c1-1,2.6-1,3.5,0l1.9,1.9c1,1,1,2.6,0,3.5L14.9,40.6
		C13.9,41.5,12.3,41.5,11.3,40.6z"/>
</g>
</svg>
