<?xml version="1.0" encoding="utf-8"?>
<!-- Generator: Adobe Illustrator 19.0.0, SVG Export Plug-In . SVG Version: 6.00 Build 0)  -->
<svg version="1.1" id="Magnifier" xmlns="http://www.w3.org/2000/svg" xmlns:xlink="http://www.w3.org/1999/xlink" x="0px" y="0px"
	 viewBox="82 -91.2 283.4 303.2" style="enable-background:new 82 -91.2 283.4 303.2;" xml:space="preserve">
<style type="text/css">
	.st0{fill:#FD5F2F;}
</style>
<path class="st0" d="M205.3,170.7c0,20.2-16.5,36.8-36.8,36.8s-36.8-16.5-36.8-36.8s16.5-36.8,36.8-36.8S205.3,150.5,205.3,170.7z
	 M168.5,23.6c-20.2,0-36.8,16.5-36.8,36.8s16.5,36.8,36.8,36.8s36.8-16.5,36.8-36.8S188.8,23.6,168.5,23.6z M168.5-86.7
	c-20.2,0-36.8,16.5-36.8,36.8s16.5,36.8,36.8,36.8s36.8-16.5,36.8-36.8S188.8-86.7,168.5-86.7z M278.9-13.2
	c20.2,0,36.8-16.5,36.8-36.8s-16.5-36.8-36.8-36.8c-20.2,0-36.8,16.5-36.8,36.8S258.6-13.2,278.9-13.2z M278.9,23.6
	c-20.2,0-36.8,16.5-36.8,36.8s16.5,36.8,36.8,36.8c20.2,0,36.8-16.5,36.8-36.8S299.1,23.6,278.9,23.6z M278.9,134
	c-20.2,0-36.8,16.5-36.8,36.8s16.5,36.8,36.8,36.8c20.2,0,36.8-16.5,36.8-36.8S299.1,134,278.9,134z"/>
</svg>
