<?xml version="1.0" encoding="utf-8"?>
<!-- Generator: Adobe Illustrator 27.3.1, SVG Export Plug-In . SVG Version: 6.00 Build 0)  -->
<svg version="1.1" xmlns="http://www.w3.org/2000/svg" xmlns:xlink="http://www.w3.org/1999/xlink" x="0px" y="0px"
	 viewBox="0 0 50 50" style="enable-background:new 0 0 50 50;" xml:space="preserve">
<style type="text/css">
	.st0{font-family:'Arial-BoldMT';}
	.st1{font-size:0.2208px;}
</style>
<g id="Layer_4">
</g>
<g id="Layer_2">
	<g id="Layer_3">
	</g>
	<path d="M43.6,20.5c-0.8,0-1.4,0.6-1.4,1.4v17.1c0,2.7-2.6,4-3.9,4H11.1c-1.7,0-3.5-1.8-3.9-5V12c0-4.1,2.9-4,3.9-4h18.2
		c0.8,0,1.4-0.6,1.4-1.4c0-0.8-0.6-1.4-1.4-1.4H10.9c-2.4,0-6.4,1.5-6.4,5.5v27.5c0,5.4,3.3,7.7,6.4,7.7h27.7c3.5,0,6.4-2.3,6.4-6.6
		V22C45,21.2,44.4,20.5,43.6,20.5 M18.1,34.1l1-3.9l2.8,2.9L18.1,34.1 M20.7,28l14.4-14.9l3.2,3.4L24,31.4L20.7,28 M42.4,12.4l-2,2
		l-3.2-3.4l2-2c0.3-0.3,0.9-0.3,1.3,0.1l1.9,2c0.2,0.2,0.3,0.5,0.3,0.7C42.6,12,42.5,12.2,42.4,12.4 M17.2,27.7c0,0-0.1,0.1-0.1,0.1
		l-2.1,7.8c-0.1,0.5,0,0.9,0.3,1.3c0.2,0.2,0.6,0.4,0.9,0.4c0.1,0,0.2,0,0.3,0l7.5-2.1c0,0,0,0,0,0c0.1,0,0.2,0,0.2-0.1l20-20.6
		c0.6-0.6,0.9-1.4,0.9-2.4c0-1-0.4-2.1-1.2-2.8l-1.9-2c-0.7-0.8-1.7-1.2-2.7-1.2c-0.9,0-1.7,0.3-2.3,0.9L17.2,27.7
		C17.2,27.7,17.2,27.7,17.2,27.7"/>
	<text transform="matrix(1 0 0 1 2.3818 48.9248)" class="st0 st1">Created by Clelia Colombo</text>
	<text transform="matrix(1 0 0 1 2.3818 49.1455)" class="st0 st1">from the Noun Project</text>
</g>
</svg>
