<?xml version="1.0" encoding="utf-8"?>
<!-- Generator: Adobe Illustrator 27.3.1, SVG Export Plug-In . SVG Version: 6.00 Build 0)  -->
<svg version="1.1" id="Layer_1" xmlns="http://www.w3.org/2000/svg" xmlns:xlink="http://www.w3.org/1999/xlink" x="0px" y="0px"
	 viewBox="0 0 50 50" style="enable-background:new 0 0 50 50;" xml:space="preserve">
<style type="text/css">
	.st0{fill:#fd5f2f;}
</style>
<g>
	<path class="st0" d="M4.4,43.1v-2.7c0-1.4,1.1-2.5,2.5-2.5h36.3c1.4,0,2.5,1.1,2.5,2.5v2.7c0,1.4-1.1,2.5-2.5,2.5H6.9
		C5.6,45.6,4.4,44.5,4.4,43.1z"/>
	<path class="st0" d="M9.6,45.6H6.9c-1.4,0-2.5-1.1-2.5-2.5V6.9c0-1.4,1.1-2.5,2.5-2.5h2.7c1.4,0,2.5,1.1,2.5,2.5l0,36.3
		C12.1,44.5,11,45.6,9.6,45.6z"/>
	<path class="st0" d="M45.6,6.9v2.7c0,1.4-1.1,2.5-2.5,2.5H6.9c-1.4,0-2.5-1.1-2.5-2.5V6.9c0-1.4,1.1-2.5,2.5-2.5h36.3
		C44.5,4.4,45.6,5.4,45.6,6.9z"/>
	<path class="st0" d="M40.4,4.4h2.7c1.4,0,2.5,1.1,2.5,2.5v36.3c0,1.4-1.1,2.5-2.5,2.5h-2.7c-1.4,0-2.5-1.1-2.5-2.5V6.9
		C37.9,5.6,39,4.4,40.4,4.4z"/>
</g>
</svg>
