<?xml version="1.0" encoding="utf-8"?>
<!-- Generator: Adobe Illustrator 27.3.1, SVG Export Plug-In . SVG Version: 6.00 Build 0)  -->
<svg version="1.1" id="Layer_1" xmlns="http://www.w3.org/2000/svg" xmlns:xlink="http://www.w3.org/1999/xlink" x="0px" y="0px"
	 viewBox="0 0 50 50" style="enable-background:new 0 0 50 50;" xml:space="preserve">
<style type="text/css">
	.st0{fill:#231F20;}
</style>
<g id="Layer_4">
	<g>
		<rect x="-40.9" y="110.2" class="st0" width="6.6" height="32.8"/>
		<rect x="-54.1" y="123.3" class="st0" width="32.8" height="6.6"/>
	</g>
</g>
<path class="st0" d="M-38,135.4h7.9c0.6,0,1,0.7,0.7,1.1l-3.9,6.9l-3.9,6.9c-0.3,0.6-1,0.6-1.3,0l-3.9-6.9l-3.9-6.9
	c-0.3-0.6,0.1-1.1,0.7-1.1H-38z"/>
<path class="st0" d="M-46.9,126.5v7.9c0,0.6-0.7,1-1.1,0.7l-6.9-3.9l-6.9-3.9c-0.6-0.3-0.6-1,0-1.3l6.9-3.9l6.9-3.9
	c0.6-0.3,1.1,0.1,1.1,0.7V126.5z"/>
<path class="st0" d="M-28.3,126.7v-7.9c0-0.6,0.7-1,1.1-0.7l6.9,3.9l6.9,3.9c0.6,0.3,0.6,1,0,1.3l-6.9,3.9l-6.9,3.9
	c-0.6,0.3-1.1-0.1-1.1-0.7V126.7z"/>
<path class="st0" d="M-37.1,116.3H-45c-0.6,0-1-0.7-0.7-1.1l3.9-6.9l3.9-6.9c0.3-0.6,1-0.6,1.3,0l3.9,6.9l3.9,6.9
	c0.3,0.6-0.1,1.1-0.7,1.1H-37.1z"/>
<g id="Layer_3">
</g>
<g>
	<rect x="22.5" y="29.2" class="st0" width="6.6" height="13.1"/>
	<rect x="22.5" y="9.5" class="st0" width="6.6" height="13.1"/>
	<rect x="9.3" y="22.6" class="st0" width="13.2" height="6.6"/>
	<rect x="29" y="22.6" class="st0" width="13" height="6.6"/>
</g>
<path class="st0" d="M25.5,35h7.9c0.6,0,1,0.7,0.7,1.1L30.2,43l-3.9,6.9c-0.3,0.6-1,0.6-1.3,0L21.2,43l-3.9-6.9
	C17,35.5,17.5,35,18,35H25.5z"/>
<path class="st0" d="M16.5,26.1V34c0,0.6-0.7,1-1.1,0.7l-6.9-3.9L1.6,27c-0.6-0.3-0.6-1,0-1.3l6.9-3.9l6.9-3.9
	c0.6-0.3,1.1,0.1,1.1,0.7V26.1z"/>
<path class="st0" d="M35.1,26.3v-7.9c0-0.6,0.7-1,1.1-0.7l6.9,3.9l6.9,3.9c0.6,0.3,0.6,1,0,1.3l-6.9,3.9l-6.9,3.9
	c-0.6,0.3-1.1-0.1-1.1-0.7V26.3z"/>
<path class="st0" d="M26.3,15.9h-7.9c-0.6,0-1-0.7-0.7-1.1l3.9-6.9L25.5,1c0.3-0.6,1-0.6,1.3,0l3.9,6.9l3.9,6.9
	c0.3,0.6-0.1,1.1-0.7,1.1H26.3z"/>
<g id="Layer_3_00000162343336340986226550000001951072132774913178_">
</g>
</svg>
