<?xml version="1.0" encoding="utf-8"?>
<!-- Generator: Adobe Illustrator 27.3.1, SVG Export Plug-In . SVG Version: 6.00 Build 0)  -->
<svg version="1.1" id="Layer_1" xmlns="http://www.w3.org/2000/svg" xmlns:xlink="http://www.w3.org/1999/xlink" x="0px" y="0px"
	 viewBox="0 0 50 50" style="enable-background:new 0 0 50 50;" xml:space="preserve">
<style type="text/css">
	.st0{fill:#231F20;}
</style>
<g>
	<path class="st0" d="M4.3,39.9v-2.5c0-1.4,1.1-2.5,2.5-2.5h36.4c1.4,0,2.5,1.1,2.5,2.5v2.5c0,1.4-1.1,2.5-2.5,2.5H6.8
		C5.4,42.4,4.3,41.2,4.3,39.9z"/>
	<path class="st0" d="M4.3,26.2v-2.5c0-1.4,1.1-2.5,2.5-2.5h36.4c1.4,0,2.5,1.1,2.5,2.5v2.5c0,1.4-1.1,2.5-2.5,2.5H6.8
		C5.4,28.7,4.3,27.6,4.3,26.2z"/>
	<path class="st0" d="M4.3,12.6v-2.5c0-1.4,1.1-2.5,2.5-2.5h36.4c1.4,0,2.5,1.1,2.5,2.5v2.5c0,1.4-1.1,2.5-2.5,2.5H6.8
		C5.4,15.1,4.3,14,4.3,12.6z"/>
</g>
</svg>
