<?xml version="1.0" encoding="utf-8"?>
<!-- Generator: Adobe Illustrator 27.3.1, SVG Export Plug-In . SVG Version: 6.00 Build 0)  -->
<svg version="1.1" xmlns="http://www.w3.org/2000/svg" xmlns:xlink="http://www.w3.org/1999/xlink" x="0px" y="0px"
	 viewBox="0 0 50 50" style="enable-background:new 0 0 50 50;" xml:space="preserve">
<style type="text/css">
	.st0{font-family:'Arial-BoldMT';}
	.st1{font-size:0.2208px;}
</style>
<g id="Layer_4">
</g>
<g id="Layer_2">
	<g id="Layer_3">
	</g>
	<text transform="matrix(1 0 0 1 2.3818 48.9248)" class="st0 st1">Created by Clelia Colombo</text>
	<text transform="matrix(1 0 0 1 2.3818 49.1455)" class="st0 st1">from the Noun Project</text>
	<g>
		<path d="M46.8,12.4l-10-10c-0.8-0.8-1.8-1.2-2.9-1.2h-27c-2.3,0-4.1,1.8-4.1,4.1v39.5c0,2.3,1.8,4.1,4.1,4.1h37.1
			c2.3,0,4.1-1.8,4.1-4.1V15.3C48,14.2,47.5,13.1,46.8,12.4z M17.2,10.3c0-0.9,0.7-1.6,1.6-1.6h13.2c0.9,0,1.6,0.7,1.6,1.6v9.5
			c0,0.9-0.7,1.6-1.6,1.6H18.8c-0.9,0-1.6-0.7-1.6-1.6L17.2,10.3L17.2,10.3z M37.9,39.6c0,0.9-0.7,1.6-1.6,1.6H14.4
			c-0.9,0-1.6-0.7-1.6-1.6V29.2c0-0.9,0.7-1.6,1.6-1.6h21.9c0.9,0,1.6,0.7,1.6,1.6L37.9,39.6L37.9,39.6z"/>
		<path d="M26.8,18.7h3.1c0.4,0,0.7-0.3,0.7-0.7v-6c0-0.4-0.3-0.7-0.7-0.7h-3.1c-0.4,0-0.7,0.3-0.7,0.7v6
			C26.1,18.5,26.5,18.7,26.8,18.7z"/>
	</g>
</g>
</svg>
