<?xml version="1.0" encoding="utf-8"?>
<!-- Generator: Adobe Illustrator 27.3.1, SVG Export Plug-In . SVG Version: 6.00 Build 0)  -->
<svg version="1.1" id="Layer_2_00000097498631687205711400000000453689736883238562_"
	 xmlns="http://www.w3.org/2000/svg" xmlns:xlink="http://www.w3.org/1999/xlink" x="0px" y="0px" viewBox="0 0 50 50"
	 style="enable-background:new 0 0 50 50;" xml:space="preserve">
<style type="text/css">
	.st0{fill:#231F20;}
	.st1{fill:#FFFFFF;}
</style>
<path class="st0" d="M58.5-26.3l4,35.6c0.1,1.2,1.3,2.2,2.6,2.2h23.3c1.3,0,2.5-1,2.6-2.2l4.2-35.6H58.5z"/>
<path class="st0" d="M6.6,12.1l4,35.6C10.8,49,12,50,13.3,50h23.3c1.3,0,2.5-1,2.6-2.2l4.2-35.6H6.6z M19.8,37.5
	c0,0.3-0.4,0.7-0.9,0.7h-1.6c-0.5,0-0.9-0.3-0.9-0.7V20.9c0-0.4,0.4-0.7,0.9-0.7h1.6c0.5,0,0.9,0.3,0.9,0.7V37.5z M25.6,38.1H24
	c-0.5,0-0.8-0.3-0.8-0.6V20.9c0-0.4,0.4-0.6,0.8-0.6h1.6c0.5,0,0.8,0.3,0.8,0.6v16.5C26.5,37.9,26.1,38.1,25.6,38.1z M32.8,37.5
	c0,0.4-0.4,0.7-0.8,0.7h-1.7c-0.4,0-0.8-0.3-0.8-0.6V20.9c0-0.3,0.4-0.6,0.8-0.6h1.7c0.4,0,0.8,0.3,0.8,0.6V37.5z"/>
<path class="st1" d="M56.8,36h-1.6c-0.5,0-0.9-0.3-0.9-0.7V18.8c0-0.4,0.4-0.7,0.9-0.7h1.6c0.5,0,0.9,0.3,0.9,0.7v16.5
	C57.8,35.6,57.4,36,56.8,36z"/>
<path class="st1" d="M63.5,36h-1.6c-0.5,0-0.8-0.3-0.8-0.6V18.8c0-0.4,0.4-0.6,0.8-0.6h1.6c0.5,0,0.8,0.3,0.8,0.6v16.5
	C64.4,35.7,64,36,63.5,36z"/>
<path class="st1" d="M70,36h-1.7c-0.4,0-0.8-0.3-0.8-0.6V18.7c0-0.3,0.4-0.6,0.8-0.6H70c0.4,0,0.8,0.3,0.8,0.6v16.6
	C70.8,35.7,70.4,36,70,36z"/>
<g>
	<path class="st0" d="M45.9,9.9V5.5c0-1.4-0.9-2.7-2-2.7H6.2c-1.2,0-2,1.2-2,2.7v4.4C4.3,9.9,45.9,9.9,45.9,9.9z"/>
	<rect x="18.5" y="0" class="st0" width="13" height="7.3"/>
</g>
</svg>
