<?xml version="1.0" encoding="utf-8"?>
<!-- Generator: Adobe Illustrator 19.0.0, SVG Export Plug-In . SVG Version: 6.00 Build 0)  -->
<svg version="1.1" id="Layer_1" xmlns="http://www.w3.org/2000/svg" xmlns:xlink="http://www.w3.org/1999/xlink" x="0px" y="0px"
	 viewBox="444 132 1500 464" style="enable-background:new 444 132 1500 464;" xml:space="preserve">
<style type="text/css">
	.st0{fill:#FFF6E7;}
</style>
<g>
	<polygon class="st0" points="1278.2,228 1235.2,299 1192.4,228 1167.2,228 1167.2,370 1190.6,370 1190.6,268.6 1233.8,340.2 
		1236.6,340.2 1279.8,268.8 1279.8,370 1303.2,370 1303.2,228 	"/>
	<path class="st0" d="M1430.6,320.2c0-14.9-4.8-27.5-14.3-37.9s-21.7-15.6-36.6-15.6c-15.7,0-28.5,5.1-38.5,15.3
		c-10,10.2-15,22.9-15,38c0,15.4,5.1,28.2,15.2,38.2c10.1,10.1,23.5,15.1,40,15.1c19.6,0,34.4-7.4,44.4-22.1l-18.1-10.6
		c-5.8,8.4-14.5,12.6-26.2,12.6c-8.4,0-15.5-2.1-21.3-6.2s-9.5-10-11.1-17.8h80.7C1430.4,325.6,1430.6,322.5,1430.6,320.2
		 M1348.9,311.5c1.5-7.7,4.9-13.8,10.3-18.3c5.4-4.5,12.2-6.7,20.3-6.7c7.2,0,13.4,2.1,18.8,6.3c5.3,4.2,8.8,10.4,10.3,18.7H1348.9z
		"/>
	<path class="st0" d="M1531.5,277.8c-7.2-7.4-16.6-11.2-28.2-11.2c-14.3,0-24.8,5.2-31.4,15.6v-13H1450v101.4h21.9v-54.4
		c0-9.9,2.4-17.2,7.1-22s10.9-7.2,18.7-7.2c7,0,12.6,2,16.6,6.1s6.1,9.9,6.1,17.4v60.1h21.9v-62.3
		C1542.2,295.5,1538.6,285.2,1531.5,277.8"/>
	<path class="st0" d="M1634.1,269.3v54.4c0,9.9-2.4,17.2-7.1,22s-11,7.2-18.7,7.2c-7,0-12.6-2-16.6-6.1c-4.1-4-6.1-9.9-6.1-17.4v-60
		h-21.9v62.3c0,13,3.6,23.2,10.7,30.6c7.2,7.4,16.6,11.1,28.2,11.1c14.3,0,24.8-5.2,31.5-15.6v13h21.9V269.3H1634.1z"/>
	<polygon class="st0" points="1168.9,395.2 1168.9,537.2 1192.2,537.2 1192.2,479.6 1250.1,479.6 1250.1,457.2 1192.2,457.2 
		1192.2,417.5 1252.1,417.5 1252.1,395.2 	"/>
	<path class="st0" d="M1352.9,435.7v14.4c-8.2-11.4-20.1-17-35.5-17c-13.9,0-25.8,5.1-35.7,15.4c-9.9,10.3-14.8,22.9-14.8,37.9
		c0,14.9,4.9,27.5,14.8,37.8c9.9,10.3,21.8,15.5,35.7,15.5c15.4,0,27.3-5.7,35.5-17.2v14.6h21.9V435.7H1352.9z M1343.8,509.7
		c-6.1,6.2-13.7,9.2-22.9,9.2c-9.2,0-16.8-3.1-22.9-9.2c-6.1-6.2-9.1-13.9-9.1-23.2s3-17.1,9.1-23.2c6.1-6.1,13.7-9.2,22.9-9.2
		c9.2,0,16.8,3.1,22.9,9.2c6.1,6.2,9.1,13.9,9.1,23.2C1352.9,495.8,1349.9,503.5,1343.8,509.7"/>
	<path class="st0" d="M1475.1,502.7c-2.4,4.7-6.1,8.5-10.9,11.4c-4.8,2.8-10.2,4.3-16.1,4.3c-8.9,0-16.4-3.1-22.4-9.1
		c-6-6.1-9-13.7-9-22.7c0-9.1,3-16.6,9-22.7c6-6.1,13.5-9.1,22.4-9.1c6.1,0,11.5,1.4,16.1,4.2c4.7,2.8,8.2,6.6,10.5,11.5l18.9-11
		c-4-8-10.1-14.3-18.3-19.1c-8.1-4.7-17.1-7.1-27-7.1c-15.3,0-28,5.1-38.2,15.3c-10.2,10.2-15.3,22.9-15.3,38
		c0,15,5.1,27.7,15.3,37.9c10.2,10.3,23,15.4,38.2,15.4c9.9,0,18.9-2.4,27-7.1c8.1-4.7,14.3-11.1,18.7-19.3L1475.1,502.7z"/>
	<path class="st0" d="M1566.4,456.8v-21.1h-25.2v-28.4l-21.9,6.5v21.9h-18.7v21.1h18.7v48.7c0,13.3,3.7,22.3,10.9,27.3
		c7.3,4.9,19.4,6.4,36.1,4.4v-19.7c-5.5,0.3-10.2,0.3-13.9,0.1c-3.7-0.2-6.5-1.2-8.4-3.1c-1.9-1.8-2.9-4.8-2.9-9v-48.7H1566.4z"/>
	<path class="st0" d="M1668.1,448.5c-10.4-10.3-23-15.4-38-15.4c-14.9,0-27.5,5.1-37.9,15.4c-10.4,10.3-15.6,22.9-15.6,37.9
		s5.2,27.7,15.6,37.9c10.4,10.3,23.1,15.4,37.9,15.4c15,0,27.7-5.1,38-15.4c10.3-10.3,15.5-22.9,15.5-37.9
		S1678.5,458.8,1668.1,448.5 M1652.6,509.4c-6.1,6.1-13.6,9.1-22.5,9.1s-16.4-3-22.5-9.1s-9.1-13.7-9.1-22.9s3-16.8,9.1-22.9
		c6.1-6.1,13.6-9.1,22.5-9.1s16.4,3,22.5,9.1s9.1,13.7,9.1,22.9S1658.7,503.3,1652.6,509.4"/>
	<path class="st0" d="M1725.4,452.8v-17h-21.9v101.4h21.9v-51.1c0-10.4,3.1-17.9,9.3-22.4c6.2-4.5,13.5-6.5,21.9-6V434
		C1741.4,433.9,1731,440.2,1725.4,452.8"/>
	<path class="st0" d="M1843.3,435.7l-25.9,73.6l-30.2-73.6h-23.9l43,99.6l-1,2c-2.7,7-6.2,12.2-10.3,15.5c-4.2,3.3-9.7,4.8-16.6,4.4
		v20.5c23.3,1.4,39.8-11.1,49.5-37.3l39-104.7H1843.3z"/>
	<path class="st0" d="M858.6,234.8c-4.3-0.7-8.7-1.3-13-1.8c0.5-0.4,0.9-0.7,1.3-1.1c0,0,0.1-0.1,0.2-0.1c8.9-7.7,14.5-19,14.5-31.7
		c0-23.1-18.8-41.9-41.9-41.9s-41.9,18.8-41.9,41.9c0,12.7,5.7,24,14.6,31.7c0,0,0.1,0.1,0.2,0.1c0.4,0.4,0.9,0.7,1.3,1
		c-4.4,0.5-8.7,1.1-13,1.8c-145.3,19.1-257.8,143.7-257.8,294.1c0,4.6,3.8,8.4,8.4,8.4H1108c4.6,0,8.4-3.7,8.4-8.4
		C1116.4,378.4,1003.9,253.8,858.6,234.8 M788.9,200c0-17,13.8-30.8,30.9-30.8c17,0,30.9,13.8,30.9,30.8c0,15.4-11.3,28.2-26.1,30.5
		c-0.4,0.1-0.7,0.1-1.1,0.2c-1.2,0.1-2.4,0.2-3.7,0.2c-1.2,0-2.5-0.1-3.6-0.2l0,0c-0.4,0-0.7-0.1-1.1-0.2
		C800.3,228.2,788.9,215.4,788.9,200 M956.2,520.4H824.6c1.3-8.4,5.5-16.1,12.4-21.2c7.7-5.7,12.7-14.9,12.7-25.2
		c0-2.4-4.9-57.2-6-69.2c-0.1-1.3-1.3-2.1-2.5-1.9l0,0c-0.9,0.2-1.7,1-1.7,2l-3.5,64.7c0,2.9-2.3,5.2-5.2,5.2
		c-2.9,0-5.2-2.3-5.2-5.2l-3.7-66c-0.1-1.1-1-2-2.1-2c-1.1,0-2.1,0.9-2.1,2l-3.7,66c0,2.9-2.3,5.2-5.2,5.2s-5.2-2.3-5.2-5.2
		l-3.5-64.7c-0.1-1-0.8-1.8-1.7-2l0,0c-1.2-0.2-2.4,0.6-2.5,1.9c-1.1,12-6,66.8-6,69.2c0,10.3,5,19.5,12.7,25.2
		c6.9,5.1,11.1,12.8,12.4,21.2H683.2c0-1.4-0.1-2.9-0.1-4.3c0-75.3,61.3-136.6,136.6-136.6s136.6,61.3,136.6,136.6
		C956.3,517.6,956.3,519,956.2,520.4 M1026.8,520.4h-53c0-1.4,0.1-2.9,0.1-4.3c0-85-69.1-154.1-154.1-154.1s-154.1,69.2-154.1,154.1
		c0,1.4,0,2.9,0.1,4.3h-53V494h24.6c4.3,0,8-3.1,8.7-7.3c4.4-26.1,14.8-51.2,30.1-72.7c2.5-3.5,2.1-8.3-0.9-11.3l-17.4-17.4
		l31.2-31.2l17.4,17.4c3,3,7.8,3.4,11.3,0.9c21.5-15.3,46.7-25.8,72.7-30.1c4.2-0.7,7.3-4.4,7.3-8.7V309h44.1v24.6
		c0,4.3,3.1,8,7.3,8.7c26,4.4,51.2,14.8,72.7,30.1c3.5,2.5,8.3,2.1,11.3-0.9l17.4-17.4l31.2,31.2l-17.4,17.4c-3,3-3.4,7.8-0.9,11.3
		c15.3,21.5,25.8,46.7,30.1,72.7c0.7,4.2,4.4,7.3,8.7,7.3h24.6L1026.8,520.4L1026.8,520.4z M1044.3,520.4v-35.1
		c0-4.8-3.9-8.8-8.8-8.8h-26.1c-4.9-23.6-14.3-46.3-27.5-66.5l18.5-18.5c3.4-3.4,3.4-9,0-12.4l-43.6-43.6c-3.4-3.4-9-3.4-12.4,0
		L925.9,354c-20.2-13.2-42.9-22.6-66.5-27.6v-26.1c0-4.8-3.9-8.8-8.8-8.8h-61.7c-4.8,0-8.8,3.9-8.8,8.8v26.1
		c-23.6,4.9-46.3,14.3-66.5,27.6l-18.5-18.5c-3.4-3.4-9-3.4-12.4,0l-43.6,43.6c-3.4,3.4-3.4,9,0,12.4l18.5,18.5
		c-13.2,20.2-22.6,42.9-27.5,66.5H604c-4.8,0-8.8,3.9-8.8,8.8v35.1H540C544.5,370,668.2,249,819.7,249s275.3,121,279.8,271.4H1044.3
		z"/>
</g>
</svg>
