<?xml version="1.0" encoding="utf-8"?>
<!-- Generator: Adobe Illustrator 19.0.0, SVG Export Plug-In . SVG Version: 6.00 Build 0)  -->
<svg version="1.1" xmlns="http://www.w3.org/2000/svg" xmlns:xlink="http://www.w3.org/1999/xlink" x="0px" y="0px"
	 viewBox="-250 329 110 135" style="enable-background:new -250 329 110 135;" xml:space="preserve">
<style type="text/css">
	.st0{fill:#FD5F2F;}
	.st1{display:none;fill:#FD5F2F;}
	.st2{fill:none;stroke:#FD5F2F;stroke-miterlimit:10;}
	.st3{fill:none;stroke:#FD5F2F;stroke-width:2;stroke-linecap:round;stroke-miterlimit:10;}
	.st4{fill:none;stroke:#FD5F2F;stroke-width:3;stroke-linecap:round;stroke-miterlimit:10;}
</style>
<g id="Layer_1">
	<path class="st0" d="M-173,331.8h-43.6c-7.6,0-13.8,6.2-13.8,13.8v101.9c0,7.6,6.2,13.8,13.8,13.8h43.6c7.6,0,13.8-6.2,13.8-13.8
		V345.6C-159.1,338-165.3,331.8-173,331.8z M-165.7,447.4c0,4-3.3,7.3-7.3,7.3h-43.6c-4,0-7.3-3.3-7.3-7.3V345.6
		c0-4,3.3-7.3,7.3-7.3h43.6c4,0,7.3,3.3,7.3,7.3V447.4z"/>
	<path class="st0" d="M-198.3,345.2h6.5c1.2,0,2.2-1,2.2-2.2s-1-2.2-2.2-2.2h-6.5c-1.2,0-2.2,1-2.2,2.2S-199.5,345.2-198.3,345.2z"
		/>
	<path class="st0" d="M-187.1,446.3h-17.6c-1.2,0-2.2,1-2.2,2.2s1,2.2,2.2,2.2h17.6c1.2,0,2.2-1,2.2-2.2S-185.9,446.3-187.1,446.3z"
		/>
</g>
<g id="screen_size">
	<path class="st1" d="M-168.5,350.2h-53c-1,0-1.8,0.8-1.8,1.8v4.5v3.5v72.9v4.9v3.1c0,1,0.8,1.8,1.8,1.8h53c1,0,1.8-0.8,1.8-1.8
		v-3.1v-4.9v-72.9v-3.5V352C-166.7,351-167.5,350.2-168.5,350.2z"/>
	<path class="st2" d="M-170.3,348.6h-48.9c-0.9,0-1.7,0.8-1.7,1.8v4.5v3.5v72.9v4.9v3.1c0,1,0.7,1.8,1.7,1.8h48.9
		c0.9,0,1.7-0.8,1.7-1.8v-3.1v-4.9v-72.9v-3.5v-4.5C-168.6,349.4-169.4,348.6-170.3,348.6z"/>
</g>
<g id="Screen_Content">
	<g>
		<g>
			<line class="st3" x1="-212.6" y1="366.6" x2="-192.3" y2="366.6"/>
			<line class="st3" x1="-212.6" y1="369.9" x2="-196.3" y2="369.9"/>
		</g>
		<line class="st3" x1="-212.6" y1="362.4" x2="-202.4" y2="362.4"/>
		<path class="st0" d="M-176.4,370.9H-187c-0.6,0-1.1-0.5-1.1-1.1V362c0-0.6,0.5-1.1,1.1-1.1h10.5c0.6,0,1.1,0.5,1.1,1.1v7.8
			C-175.4,370.4-175.9,370.9-176.4,370.9z"/>
	</g>
	<g>
		<path class="st0" d="M-176.4,386.3H-187c-0.6,0-1.1-0.5-1.1-1.1v-7.8c0-0.6,0.5-1.1,1.1-1.1h10.5c0.6,0,1.1,0.5,1.1,1.1v7.8
			C-175.4,385.9-175.9,386.3-176.4,386.3z"/>
		<g>
			<line class="st3" x1="-212.6" y1="382.1" x2="-192.3" y2="382.1"/>
			<line class="st3" x1="-212.6" y1="385.3" x2="-196.3" y2="385.3"/>
		</g>
		<line class="st3" x1="-212.6" y1="377.9" x2="-202.4" y2="377.9"/>
	</g>
	<line class="st4" x1="-205.3" y1="352.8" x2="-183.4" y2="352.8"/>
	<line class="st4" x1="-205.2" y1="396.3" x2="-184.2" y2="396.3"/>
	<g>
		<path class="st0" d="M-176.4,413.8H-187c-0.6,0-1.1-0.5-1.1-1.1v-7.8c0-0.6,0.5-1.1,1.1-1.1h10.5c0.6,0,1.1,0.5,1.1,1.1v7.8
			C-175.4,413.4-175.9,413.8-176.4,413.8z"/>
		<g>
			<line class="st3" x1="-212.6" y1="409.6" x2="-192.3" y2="409.6"/>
			<line class="st3" x1="-212.6" y1="412.8" x2="-196.3" y2="412.8"/>
		</g>
		<line class="st3" x1="-212.6" y1="405.4" x2="-202.4" y2="405.4"/>
	</g>
	<g>
		<path class="st0" d="M-176.8,430.8h-10.5c-0.6,0-1.1-0.5-1.1-1.1v-7.8c0-0.6,0.5-1.1,1.1-1.1h10.5c0.6,0,1.1,0.5,1.1,1.1v7.8
			C-175.8,430.4-176.2,430.8-176.8,430.8z"/>
		<g>
			<line class="st3" x1="-213" y1="426.6" x2="-192.6" y2="426.6"/>
			<line class="st3" x1="-213" y1="429.8" x2="-196.6" y2="429.8"/>
		</g>
		<line class="st3" x1="-213" y1="422.4" x2="-202.7" y2="422.4"/>
	</g>
	<text transform="matrix(1 0 0 1 56 725)" style="font-family:'MyriadPro-Regular'; font-size:12px;">fd5f2f</text>
</g>
</svg>
